<?xml version="1.0" encoding="UTF-8" standalone="no"?>
<svg
   xmlns:dc="http://purl.org/dc/elements/1.1/"
   xmlns:cc="http://creativecommons.org/ns#"
   xmlns:rdf="http://www.w3.org/1999/02/22-rdf-syntax-ns#"
   xmlns:svg="http://www.w3.org/2000/svg"
   xmlns="http://www.w3.org/2000/svg"
   xmlns:sodipodi="http://sodipodi.sourceforge.net/DTD/sodipodi-0.dtd"
   xmlns:inkscape="http://www.inkscape.org/namespaces/inkscape"
   version="1.1"
   id="Layer_1"
   x="0px"
   y="0px"
   width="512px"
   height="512px"
   viewBox="0 0 512 512"
   enable-background="new 0 0 512 512"
   xml:space="preserve"
   sodipodi:docname="Erpnext_logo2.svg"
   inkscape:version="1.0.2 (e86c8708, 2021-01-15)"><metadata
   id="metadata891"><rdf:RDF><cc:Work
       rdf:about=""><dc:format>image/svg+xml</dc:format><dc:type
         rdf:resource="http://purl.org/dc/dcmitype/StillImage" /><dc:title></dc:title></cc:Work></rdf:RDF></metadata><defs
   id="defs889"><rect
     x="200.63492"
     y="204.19048"
     width="80.761905"
     height="55.365079"
     id="rect1520" /></defs><sodipodi:namedview
   pagecolor="#ffffff"
   bordercolor="#666666"
   borderopacity="1"
   objecttolerance="10"
   gridtolerance="10"
   guidetolerance="10"
   inkscape:pageopacity="0"
   inkscape:pageshadow="2"
   inkscape:window-width="1972"
   inkscape:window-height="1232"
   id="namedview887"
   showgrid="false"
   inkscape:zoom="1.3921165"
   inkscape:cx="320.25154"
   inkscape:cy="250.40119"
   inkscape:window-x="311"
   inkscape:window-y="552"
   inkscape:window-maximized="0"
   inkscape:current-layer="Layer_1" />
<g
   id="g880">
	<path
   fill="#7574FF"
   d="M512,448c0,35.2-28.8,64-64,64H64c-35.2,0-64-28.8-64-64V64C0,28.8,28.8,0,64,0h384c35.2,0,64,28.8,64,64   V448z"
   id="path878" />
</g>
<g
   id="g884">
	<path
   fill="#FFFFFF"
   d="M150.483,371.684V141.15c0-15.167,9.534-25.133,23.833-25.133h162.5c13.866,0,20.8,6.933,20.8,18.633v2.6   c0,12.133-6.934,18.633-20.8,18.633h-141.7v78.434h109.634c14.3,0,20.8,6.066,20.8,17.767v1.3c0,12.133-6.934,18.633-20.8,18.633   H195.117v84.934h144.3c13.867,0,20.367,6.066,20.367,17.767v2.167c0,12.566-6.5,19.5-20.367,19.5h-165.1   C160.017,396.384,150.483,386.851,150.483,371.684z"
   id="path882" />
</g>
<path
   style="fill:#948d86;stroke-width:0.507937"
   d="M 58.920635,511.48053 C 30.306854,509.21996 7.0497158,488.05109 1.1757646,458.92063 0.29470522,454.55123 0.25396825,445.58355 0.25396825,256 0.25396825,66.416447 0.29470522,57.448767 1.1757646,53.079365 6.6174014,26.09287 26.09287,6.6174014 53.079365,1.1757646 57.448767,0.29470522 66.416447,0.25396825 256,0.25396825 c 189.58355,0 198.55123,0.040737 202.92063,0.92179635 26.9865,5.4416368 46.46197,24.9171054 51.9036,51.9036004 0.88107,4.369402 0.9218,13.337082 0.9218,202.920635 0,189.58355 -0.0406,198.55123 -0.9218,202.92063 -5.34374,26.50102 -23.97479,45.55569 -50.50988,51.65837 l -4.94927,1.13823 -195.80952,0.0722 C 151.86032,511.82903 61.574603,511.69013 58.920635,511.4805 Z M 344.84514,396.16214 c 6.77833,-1.09981 11.56587,-4.75821 13.82399,-10.56362 1.55018,-3.98536 1.68227,-14.19204 0.2374,-18.34417 -1.43569,-4.12573 -5.21189,-7.70519 -9.7497,-9.24176 l -3.50604,-1.18719 -75.04762,-0.13989 -75.04761,-0.13989 v -42.14583 -42.14582 h 56.28766 c 38.54992,0 57.23744,-0.175 59.30159,-0.55531 6.25123,-1.15178 10.73261,-4.41503 13.1029,-9.54125 0.93932,-2.03147 1.08562,-3.27199 1.08562,-9.20503 0,-6.08479 -0.13179,-7.1432 -1.17008,-9.39682 -2.1281,-4.61904 -5.59792,-7.26581 -11.28123,-8.60529 -2.85256,-0.67231 -10.9464,-0.77753 -60.31059,-0.78403 l -57.01587,-0.008 v -39.11111 -39.11111 h 72.86388 c 51.38149,0 73.65747,-0.16604 75.55556,-0.56315 4.13182,-0.86446 8.42044,-3.35921 10.3559,-6.02416 2.50509,-3.4493 3.39772,-6.89723 3.41016,-13.17239 0.021,-10.58571 -2.9542,-15.59833 -11.2485,-18.9516 l -2.87351,-1.16172 -86.30332,-0.13558 c -93.47999,-0.14685 -88.94664,-0.26631 -94.66744,2.49481 -3.25244,1.56978 -7.35355,5.58539 -9.15375,8.9629 -3.34529,6.2764 -3.12956,-2.56993 -3.13783,128.67204 -0.005,77.21751 0.17109,120.13192 0.49982,121.90476 1.24226,6.69953 6.27645,13.48215 12.0055,16.17512 5.4213,2.54831 2.79126,2.47763 93.64591,2.51666 56.68444,0.0243 86.16666,-0.13988 88.3372,-0.49206 z"
   id="path893" /><rect
   style="fill:#ffff00"
   id="rect939"
   width="293.07938"
   height="178.28572"
   x="93.968254"
   y="236.69841" /><path
   style="fill:#ffff00;stroke-width:0.507937"
   d="M 93.968254,325.84127 V 236.69841 H 240.50794 387.04762 v 89.14286 89.14286 H 240.50794 93.968254 Z"
   id="path941" /><path
   style="fill:#ffff00;stroke-width:0.507937"
   d="M 93.968254,325.84127 V 236.69841 H 240.50794 387.04762 v 89.14286 89.14286 H 240.50794 93.968254 Z"
   id="path943" /><path
   style="fill:#ffff00;stroke-width:0.507937"
   d="M 93.968254,325.84127 V 236.69841 H 240.50794 387.04762 v 89.14286 89.14286 H 240.50794 93.968254 Z"
   id="path945" /><path
   style="fill:#ffff00;stroke-width:0.507937"
   d="M 93.968254,325.84127 V 236.69841 H 240.50794 387.04762 v 89.14286 89.14286 H 240.50794 93.968254 Z"
   id="path947" /><path
   style="fill:#948d86;stroke-width:0.507937;fill-opacity:1"
   d="M 93.968254,325.84127 V 236.69841 H 240.50794 387.04762 v 89.14286 89.14286 H 240.50794 93.968254 Z"
   id="path949" /><rect
   style="fill:#948d86;fill-opacity:1"
   id="rect1512"
   width="236.19048"
   height="174.22223"
   x="126.47619"
   y="85.84127" /><text
   xml:space="preserve"
   style="font-style:normal;font-weight:normal;font-size:40px;line-height:1.25;font-family:sans-serif;fill:#000000;fill-opacity:1;stroke:none"
   x="90.920631"
   y="424.12695"
   id="text1516"><tspan
     sodipodi:role="line"
     id="tspan1514"
     x="90.920631"
     y="424.12695"
     style="font-style:normal;font-variant:normal;font-weight:bold;font-stretch:normal;font-size:466.667px;font-family:Verdana;-inkscape-font-specification:'Verdana Bold';fill:#fed96b;fill-opacity:1">P</tspan></text><text
   xml:space="preserve"
   id="text1518"
   style="fill:black;fill-opacity:1;line-height:1.25;stroke:none;font-family:sans-serif;font-style:normal;font-weight:normal;font-size:40px;white-space:pre;shape-inside:url(#rect1520);" /><rect
   style="fill:#948d86;fill-opacity:1"
   id="rect1594"
   width="439.61838"
   height="442.4917"
   x="30.169889"
   y="37.353195" /><text
   xml:space="preserve"
   style="font-style:normal;font-weight:normal;font-size:40px;line-height:1.25;font-family:sans-serif;fill:#fed96b;fill-opacity:1;stroke:none"
   x="91.537987"
   y="423.09677"
   id="text1598"><tspan
     sodipodi:role="line"
     id="tspan1596"
     x="91.537987"
     y="423.09677"
     style="font-style:normal;font-variant:normal;font-weight:bold;font-stretch:normal;font-size:466.667px;font-family:Verdana;-inkscape-font-specification:'Verdana Bold';fill:#fed96b;fill-opacity:1">P</tspan></text></svg>
